<svg width="20" height="17" viewBox="0 0 20 17" fill="none" xmlns="http://www.w3.org/2000/svg">
<path d="M6.2896 16.251C13.8368 16.251 17.9648 9.99825 17.9648 4.57584C17.9648 4.39824 17.9648 4.22144 17.9528 4.04544C18.7559 3.46457 19.4491 2.74534 20 1.92144C19.2512 2.25344 18.4567 2.47107 17.6432 2.56704C18.4998 2.05428 19.141 1.24769 19.4472 0.297439C18.6417 0.775449 17.7605 1.1123 16.8416 1.29344C16.2229 0.635589 15.4047 0.199979 14.5135 0.0540105C13.6223 -0.0919535 12.7078 0.0598694 11.9116 0.485989C11.1154 0.912099 10.4819 1.58875 10.109 2.41123C9.73605 3.23371 9.64462 4.15616 9.8488 5.03584C8.21741 4.95401 6.62146 4.53003 5.16455 3.79145C3.70763 3.05286 2.4223 2.01616 1.392 0.748639C0.867274 1.65197 0.70656 2.72133 0.942583 3.73899C1.17861 4.75666 1.79362 5.6461 2.6624 6.22624C2.00936 6.20711 1.37054 6.03094 0.8 5.71264V5.76464C0.800259 6.71202 1.12821 7.63014 1.72823 8.36328C2.32824 9.09642 3.16338 9.59945 4.092 9.78705C3.4879 9.95185 2.85406 9.97595 2.2392 9.85745C2.50151 10.6727 3.01202 11.3856 3.69937 11.8965C4.38671 12.4074 5.21652 12.6908 6.0728 12.707C5.22203 13.3757 4.24776 13.8701 3.20573 14.162C2.16369 14.4538 1.07435 14.5374 0 14.4078C1.87653 15.612 4.05994 16.2507 6.2896 16.2478" fill="black"/>
</svg>
