<svg width="56" height="56" viewBox="0 0 56 56" fill="none" xmlns="http://www.w3.org/2000/svg">
<g clip-path="url(#clip0_39_307)">
<path d="M37.1442 23.6705H34.3407C34.0588 23.6705 33.8309 23.8984 33.8309 24.1803V36.9233C33.8309 37.2053 34.0588 37.433 34.3407 37.433H37.1442C37.4261 37.433 37.6538 37.2053 37.6538 36.9233V24.1803C37.6538 23.8984 37.4261 23.6705 37.1442 23.6705Z" fill="#202020"/>
<path d="M44.5351 26.9528V36.9233C44.5351 37.2053 44.763 37.433 45.0449 37.433H47.8483C48.1301 37.433 48.3581 37.2053 48.3581 36.9233V28.3623C48.3581 27.8815 48.7461 27.4934 49.227 27.4934H51.3083C51.789 27.4934 52.1771 27.8815 52.1771 28.3623V36.9233C52.1771 37.2053 52.405 37.433 52.6869 37.433H55.4902C55.7723 37.433 56 37.2053 56 36.9233V26.9528C56 25.1398 54.5308 23.6705 52.7177 23.6705H47.8175C46.0044 23.6705 44.5351 25.1398 44.5351 26.9528Z" fill="#202020"/>
<path d="M35.7424 18.2933C34.5819 18.2933 33.6398 19.2355 33.6398 20.3959C33.6398 21.5563 34.5819 22.4985 35.7424 22.4985C36.9027 22.4985 37.845 21.5563 37.845 20.3959C37.845 19.2355 36.9047 18.2933 35.7424 18.2933Z" fill="#202020"/>
<path d="M42.4962 19.0829H39.6926C39.4107 19.0829 39.183 19.3108 39.183 19.5927V36.9232C39.183 37.2051 39.4107 37.433 39.6926 37.433H42.4962C42.778 37.433 43.0059 37.2051 43.0059 36.9232V19.5927C43.0059 19.3108 42.778 19.0829 42.4962 19.0829Z" fill="#202020"/>
<path d="M32.9814 36.6394L29.1025 30.822C28.9923 30.6579 28.9886 30.4436 29.0909 30.2737L32.6493 24.4447C32.8578 24.1049 32.6125 23.6685 32.2149 23.6685H29.2008C29.0233 23.6685 28.8592 23.7612 28.7665 23.9118L26.4553 27.6961C26.357 27.8564 26.1832 27.9683 25.9805 27.9683C25.6715 27.9683 25.4205 27.7173 25.4205 27.4084V20.1681C25.4205 19.8862 25.1927 19.6583 24.9107 19.6583H22.1073C21.8254 19.6583 21.5975 19.8862 21.5975 20.1681V36.9233C21.5975 37.2051 21.8254 37.433 22.1073 37.433H24.9107C25.1927 37.433 25.4205 37.2051 25.4205 36.9233V33.4614C25.4205 33.1525 25.6715 32.9015 25.9805 32.9015C26.1735 32.9015 26.3415 32.998 26.4438 33.1467L29.1508 37.2071C29.2453 37.348 29.4037 37.4348 29.5755 37.4348H32.5586C32.9659 37.4348 33.2091 36.9812 32.9833 36.6433" fill="#202020"/>
<path d="M8.4857 24.6223C8.58803 24.5181 8.72896 24.4543 8.88537 24.4543C9.04176 24.4543 9.18077 24.5161 9.28118 24.6185L11.7641 27.1014C11.9649 27.3022 12.2912 27.3022 12.492 27.1014L14.4672 25.1263C14.668 24.9255 14.668 24.5992 14.4672 24.3984L10.3296 20.2549C9.53409 19.4595 8.24242 19.4595 7.44694 20.2549L3.30351 24.3984C3.10272 24.5992 3.10272 24.9255 3.30351 25.1263L5.27869 27.1014C5.47949 27.3022 5.80578 27.3022 6.0066 27.1014L8.4857 24.6223Z" fill="#FF6521"/>
<path d="M17.1761 27.1034L16.2783 26.2056C16.0775 26.0048 15.7512 26.0048 15.5504 26.2056L9.2812 32.4748C9.18079 32.5752 9.03986 32.6389 8.88539 32.6389C8.73092 32.6389 8.59191 32.5771 8.48958 32.4767L2.2223 26.2056C2.02151 26.0048 1.69521 26.0048 1.49441 26.2056L0.596607 27.1034C-0.198869 27.8989 -0.198869 29.1906 0.596607 29.986L7.44503 36.8345C8.24051 37.63 9.53219 37.63 10.3277 36.8345L17.1761 29.986C17.9716 29.1906 17.9716 27.8989 17.1761 27.1034Z" fill="#202020"/>
</g>
<rect x="1" y="1" width="54" height="54" rx="27" stroke="#E5E5E5" stroke-width="2"/>
<defs>
<clipPath id="clip0_39_307">
<rect width="56" height="56" rx="28" fill="white"/>
</clipPath>
</defs>
</svg>
